Patient4_TMGait_0pt3_01_left_17_GRF.mot
version=1
nRows=58
nColumns=19
inDegrees=no
endheader
time	F1x	F1y	F1z	M1x	M1y	M1z	F2x	F2y	F2z	M2x	M2y	M2z	EC1x	EC1y	EC1z	EC2x	EC2y	EC2z
31.6	2.1002	-2.1808	0.80512	-0.054773	-1.0598	-4.3744	-5.4634	783.5795	-33.4848	261.7972	38.0765	798.6695	-0.0592	0.0182	-0.0073	-0.0462	0.0165	0.9585
31.6189	1.4063	-1.3588	0.55462	-0.076424	-0.74121	-2.8199	-7.4826	804.3329	-33.6987	268.444	39.0306	817.8419	-0.0592	0.0182	-0.0073	-0.0462	0.0165	0.9585
31.6377	0.80386	-0.64654	0.33553	-0.098897	-0.4691	-1.4833	-9.8541	826.8206	-34.1516	275.5333	40.218	838.5404	-0.0592	0.0182	-0.0073	-0.0462	0.0165	0.9585
31.6566	0.33093	-0.082547	0.16779	-0.12302	-0.26531	-0.44053	-12.3783	848.538	-34.8552	282.1964	41.5575	858.3427	-0.0592	0.0182	-0.0073	-0.0462	0.0165	0.9585
31.6754	-0.012932	0.32801	0.054702	-0.14662	-0.13368	0.30198	-14.7914	866.8354	-35.761	287.5247	42.91	874.6485	-0.0592	0.0182	-0.0073	-0.0462	0.0165	0.9585
31.6943	-0.24554	0.59164	-0.0084012	-0.16489	-0.067623	0.77361	-16.8218	879.4111	-36.781	290.7423	44.1111	885.168	-0.0592	0.0182	-0.0073	-0.0462	0.0165	0.9585
31.7131	-0.39242	0.71306	-0.032095	-0.16886	-0.053679	1.0123	-18.2183	884.6534	-37.8147	291.3231	45.0008	888.2615	-0.0592	0.0182	-0.0073	-0.0462	0.0165	0.9585
31.732	-0.48071	0.68942	-0.032121	-0.14497	-0.073708	1.0479	-18.7963	881.8261	-38.7595	289.0534	45.4494	883.1468	-0.0592	0.0182	-0.0073	-0.0462	0.0165	0.9585
31.7509	-0.53442	0.50637	-0.021074	-0.075497	-0.1122	0.88747	-18.463	871.1549	-39.5124	284.0641	45.3653	870.0076	-0.0592	0.0182	-0.0073	-0.0462	0.0165	0.9585
31.7697	-0.57106	0.1418	-0.0093955	0.059613	-0.15445	0.51718	-17.2268	853.8076	-39.9612	276.8235	44.6855	849.9892	-0.0592	0.0182	-0.0073	-0.0462	0.0165	0.9585
31.7886	-0.60161	-0.42991	-0.0058513	0.27933	-0.18698	-0.085604	-15.1891	831.6671	-39.987	268.0492	43.3714	824.9669	-0.0592	0.0182	-0.0073	-0.0462	0.0165	0.9585
31.8074	-0.62787	-1.2259	-0.018344	0.59658	-0.19601	-0.94178	-12.5072	806.9915	-39.5293	258.5722	41.4485	797.1834	-0.0592	0.0182	-0.0073	-0.0462	0.0165	0.9585
31.8263	-0.63589	-2.2326	-0.053327	1.0102	-0.1677	-2.0447	-9.3372	782.0749	-38.6364	249.2089	39.033	768.9033	-0.0592	0.0182	-0.0073	-0.0462	0.0165	0.9585
31.8451	-0.59679	-3.3829	-0.11634	1.4908	-0.085612	-3.3229	-5.8076	758.9698	-37.4599	240.6634	36.3183	742.1422	-0.0592	0.0182	-0.0073	-0.0462	0.0165	0.9585
31.864	-0.46553	-4.5186	-0.21151	1.9667	0.072618	-4.6003	-2.0127	739.2554	-36.2193	233.456	33.5388	718.4396	-0.0592	0.0182	-0.0073	-0.0462	0.0165	0.9585
31.8829	-0.1818	-5.3444	-0.34243	2.3101	0.33554	-5.5586	1.965	723.8602	-35.1427	227.8778	30.9193	698.6957	-0.0592	0.0182	-0.0073	-0.0462	0.0165	0.9585
31.9017	0.3232	-5.3878	-0.50621	2.3196	0.72976	-5.6855	6.046	713.0218	-34.4133	223.9913	28.6388	683.1393	-0.0592	0.0182	-0.0073	-0.0462	0.0165	0.9585
31.9206	1.1145	-3.9703	-0.68675	1.707	1.2654	-4.2449	10.159	706.3952	-34.1348	221.6734	26.8048	671.4344	-0.0592	0.0182	-0.0073	-0.0462	0.0165	0.9585
31.9394	2.2327	-0.21185	-0.84819	0.10008	1.9185	-0.27851	14.2573	703.2107	-34.3163	220.6681	25.4294	662.8375	-0.0592	0.0182	-0.0073	-0.0462	0.0165	0.9585
31.9583	3.6626	6.9116	-0.92694	-2.9325	2.6095	7.3365	18.2985	702.4386	-34.889	220.6367	24.4496	656.3786	-0.0592	0.0182	-0.0073	-0.0462	0.0165	0.9585
31.9771	5.2945	18.4234	-0.82777	-7.8203	3.1835	19.7255	22.2308	702.9118	-35.7345	221.1879	23.7575	651.0002	-0.0592	0.0182	-0.0073	-0.0462	0.0165	0.9585
31.996	6.8736	35.0734	-0.42177	-14.876	3.388	37.7204	25.9708	703.3697	-36.7083	221.8825	23.233	645.6265	-0.0592	0.0182	-0.0073	-0.0462	0.0165	0.9585
32.0149	7.9516	56.9258	0.44923	-24.1147	2.8585	61.423	29.3552	702.4779	-37.6662	222.2333	22.7887	639.2013	-0.0592	0.0182	-0.0073	-0.0462	0.0165	0.9585
32.0337	7.9521	82.8938	1.9211	-35.0601	1.2046	89.6931	32.1201	698.9221	-38.4995	221.736	22.409	630.7671	-0.0592	0.0182	-0.0073	-0.0462	0.0165	0.9585
32.0526	6.6005	110.5766	4.0935	-46.6806	-1.7905	119.95	33.9429	691.6308	-39.1567	219.9528	22.156	619.6253	-0.0592	0.0182	-0.0073	-0.0462	0.0165	0.9585
32.0714	4.3109	136.9746	6.8974	-57.7123	-5.8628	148.8819	34.5579	680.1187	-39.6306	216.6447	22.1267	605.5724	-0.0592	0.0182	-0.0073	-0.0462	0.0165	0.9585
32.0903	1.7021	160.0969	9.8948	-67.352	-10.2576	174.2103	33.9209	664.7254	-39.9305	211.8742	22.3711	589.0254	-0.0592	0.0182	-0.0073	-0.0462	0.0165	0.9585
32.1091	-0.89856	180.0953	12.6117	-75.7036	-14.3124	196.0214	32.3012	646.4642	-40.046	205.9705	22.818	570.8284	-0.0592	0.0182	-0.0073	-0.0462	0.0165	0.9585
32.128	-3.3798	198.5306	14.7862	-83.4552	-17.7	215.9661	30.1772	626.4067	-39.9347	199.325	23.2902	551.7405	-0.0592	0.0182	-0.0073	-0.0462	0.0165	0.9585
32.1469	-5.6949	217.1312	16.3341	-91.3509	-20.3193	235.8746	28.0158	605.1308	-39.535	192.1914	23.5858	532.0446	-0.0592	0.0182	-0.0073	-0.0462	0.0165	0.9585
32.1657	-7.7954	237.1772	17.343	-99.9265	-22.2545	257.0871	26.0987	582.5295	-38.8167	184.6026	23.5844	511.4506	-0.0592	0.0182	-0.0073	-0.0462	0.0165	0.9585
32.1846	-9.6191	259.3901	18.0345	-109.4618	-23.7212	280.3402	24.4989	558.0301	-37.7807	176.4312	23.2588	489.3237	-0.0592	0.0182	-0.0073	-0.0462	0.0165	0.9585
32.2034	-11.1056	283.9417	18.6921	-119.9948	-24.9961	305.7753	23.1547	530.9943	-36.4142	167.5179	22.6164	465.0349	-0.0592	0.0182	-0.0073	-0.0462	0.0165	0.9585
32.2223	-12.2354	310.6786	19.574	-131.4248	-26.3375	333.1607	21.9743	501.0268	-34.6806	157.7687	21.6577	438.2147	-0.0592	0.0182	-0.0073	-0.0462	0.0165	0.9585
32.2411	-13.0324	339.4659	20.8509	-143.663	-27.925	362.2782	20.8901	468.0918	-32.5641	147.1895	20.3901	408.8421	-0.0592	0.0182	-0.0073	-0.0462	0.0165	0.9585
32.26	-13.5167	370.2795	22.5817	-156.6774	-29.8228	393.0398	19.8608	432.4786	-30.0974	135.8725	18.8459	377.1978	-0.0592	0.0182	-0.0073	-0.0462	0.0165	0.9585
32.2789	-13.6599	402.9675	24.7278	-170.3934	-31.9798	425.2386	18.8509	394.7158	-27.3652	123.9728	17.0933	343.7735	-0.0592	0.0182	-0.0073	-0.0462	0.0165	0.9585
32.2977	-13.399	436.9871	27.2009	-184.5797	-34.2833	458.2877	17.8019	355.52	-24.4825	111.6953	15.2279	309.2187	-0.0592	0.0182	-0.0073	-0.0462	0.0165	0.9585
32.3166	-12.6552	471.3619	29.8956	-198.8293	-36.5962	491.1886	16.6337	315.7656	-21.5853	99.2894	13.3699	274.3147	-0.0592	0.0182	-0.0073	-0.0462	0.0165	0.9585
32.3354	-11.3584	504.8666	32.6847	-212.6354	-38.7605	522.7187	15.2822	276.416	-18.8249	87.0317	11.6504	239.9051	-0.0592	0.0182	-0.0073	-0.0462	0.0165	0.9585
32.3543	-9.4844	536.2764	35.4067	-225.4982	-40.5973	551.6901	13.7226	238.4177	-16.3461	75.1951	10.1865	206.7998	-0.0592	0.0182	-0.0073	-0.0462	0.0165	0.9585
32.3731	-7.0864	564.6392	37.8858	-237.0358	-41.9415	577.2261	11.9718	202.6094	-14.2524	64.0221	9.0526	175.7033	-0.0592	0.0182	-0.0073	-0.0462	0.0165	0.9585
32.392	-4.2958	589.4437	39.9955	-247.0486	-42.7149	598.9295	10.0947	169.648	-12.5784	53.7059	8.2591	147.1551	-0.0592	0.0182	-0.0073	-0.0462	0.0165	0.9585
32.4109	-1.3123	610.6488	41.716	-255.5238	-42.9798	616.907	8.1876	139.9344	-11.2807	44.368	7.7482	121.4667	-0.0592	0.0182	-0.0073	-0.0462	0.0165	0.9585
32.4297	1.6162	628.5925	43.1454	-262.5953	-42.9405	631.6597	6.3408	113.552	-10.2582	36.0384	7.4175	98.679	-0.0592	0.0182	-0.0073	-0.0462	0.0165	0.9585
32.4486	4.2446	643.8697	44.4555	-268.5009	-42.8768	643.9318	4.6136	90.3152	-9.3762	28.6691	7.1466	78.6039	-0.0592	0.0182	-0.0073	-0.0462	0.0165	0.9585
32.4674	6.3758	657.228	45.8197	-273.5545	-43.0541	654.5791	3.0319	69.9493	-8.4921	22.1892	6.8159	60.9938	-0.0592	0.0182	-0.0073	-0.0462	0.0165	0.9585
32.4863	7.8756	669.4601	47.3554	-278.113	-43.6573	664.4574	1.6155	52.2583	-7.4871	16.5537	6.3253	45.6823	-0.0592	0.0182	-0.0073	-0.0462	0.0165	0.9585
32.5051	8.6556	681.4009	49.0942	-282.5745	-44.7633	674.4183	0.41858	37.1705	-6.3052	11.7528	5.6164	32.6141	-0.0592	0.0182	-0.0073	-0.0462	0.0165	0.9585
32.524	8.6623	693.9965	50.9742	-287.3959	-46.336	685.3756	-0.47108	24.7036	-4.977	7.7968	4.6914	21.8113	-0.0592	0.0182	-0.0073	-0.0462	0.0165	0.9585
32.5429	7.9167	708.2437	52.8773	-293.0509	-48.2461	698.2444	-0.99376	14.9087	-3.608	4.6993	3.6225	13.3218	-0.0592	0.0182	-0.0073	-0.0462	0.0165	0.9585
32.5617	6.5442	724.9986	54.6997	-299.9315	-50.3269	713.749	-1.1712	7.7643	-2.3427	2.4479	2.5412	7.1224	-0.0592	0.0182	-0.0073	-0.0462	0.0165	0.9585
32.5806	4.7433	744.8439	56.374	-308.2847	-52.414	732.3024	-1.1251	3.0438	-1.3084	0.9661	1.595	3.0177	-0.0592	0.0182	-0.0073	-0.0462	0.0165	0.9585
32.5994	2.7577	768.0433	57.8469	-318.1955	-54.3439	753.9802	-0.96532	0.30342	-0.54555	0.11108	0.8536	0.63273	-0.0592	0.0182	-0.0073	-0.0462	0.0165	0.9585
32.6183	0.84834	794.3956	59.0884	-329.5364	-55.9766	778.4171	-0.76861	-0.96977	-0.037393	-0.28103	0.32831	-0.46603	-0.0592	0.0182	-0.0073	-0.0462	0.0165	0.9585
32.6371	-0.72842	822.9619	60.1101	-341.8616	-57.2223	804.5683	-0.58151	-1.2572	0.26173	-0.36302	-0.0045975	-0.69186	-0.0592	0.0182	-0.0073	-0.0462	0.0165	0.9585
32.656	-1.7658	851.8495	60.9464	-354.3241	-58.0375	830.5234	-0.42785	-0.95924	0.40741	-0.26138	-0.18813	-0.39719	-0.0592	0.0182	-0.0073	-0.0462	0.0165	0.9585
32.6749	-2.1295	878.2223	61.6367	-365.6872	-58.4116	853.5289	-0.31552	-0.38439	0.45279	-0.074324	-0.26838	0.14326	-0.0592	0.0182	-0.0073	-0.0462	0.0165	0.9585
